<mxfile host="drawio-plugin" modified="2023-02-22T15:17:24.701Z" agent="5.0 (Macintosh; Intel Mac OS X 10_15_7) AppleWebKit/537.36 (KHTML, like Gecko) Chrome/104.0.5112.102 Safari/537.36" etag="i5axTi_EE3pNONMOgQiB" version="20.5.3" type="embed" pages="5"><diagram id="6psc6aDcawbKJASySPZ4" name="Management"><mxGraphModel dx="2555" dy="1626" grid="1" gridSize="10" guides="1" tooltips="1" connect="1" arrows="1" fold="1" page="1" pageScale="1" pageWidth="827" pageHeight="1169" math="0" shadow="0"><root><mxCell id="0"/><mxCell id="1" parent="0"/><mxCell id="mBez1MrT5q8K6Kjs1nC1-1" value="&lt;h1&gt;Manager&lt;/h1&gt;&lt;div&gt;&lt;br&gt;&lt;/div&gt;&lt;div&gt;&lt;br&gt;&lt;/div&gt;&lt;div&gt;&lt;br&gt;&lt;/div&gt;&lt;div&gt;&lt;br&gt;&lt;/div&gt;&lt;div&gt;&lt;br&gt;&lt;/div&gt;&lt;div&gt;&lt;br&gt;&lt;/div&gt;" style="rounded=1;whiteSpace=wrap;html=1;fillColor=#fff2cc;strokeColor=#d6b656;" parent="1" vertex="1"><mxGeometry x="-810" y="60" width="400" height="200" as="geometry"/></mxCell><mxCell id="mBez1MrT5q8K6Kjs1nC1-2" value="CreateManager" style="rounded=1;whiteSpace=wrap;html=1;fillColor=#dae8fc;strokeColor=#6c8ebf;" parent="1" vertex="1"><mxGeometry x="-790" y="160" width="170" height="60" as="geometry"/></mxCell><mxCell id="mBez1MrT5q8K6Kjs1nC1-3" value="ManagerCreated" style="rounded=1;whiteSpace=wrap;html=1;fillColor=#ffe6cc;strokeColor=#d79b00;" parent="1" vertex="1"><mxGeometry x="-600" y="160" width="170" height="60" as="geometry"/></mxCell><mxCell id="mBez1MrT5q8K6Kjs1nC1-7" value="&lt;h1&gt;Company&lt;/h1&gt;&lt;div&gt;&lt;br&gt;&lt;/div&gt;&lt;div&gt;&lt;br&gt;&lt;/div&gt;&lt;div&gt;&lt;br&gt;&lt;/div&gt;&lt;div&gt;&lt;br&gt;&lt;/div&gt;&lt;div&gt;&lt;br&gt;&lt;/div&gt;&lt;div&gt;&lt;br&gt;&lt;/div&gt;" style="rounded=1;whiteSpace=wrap;html=1;fillColor=#fff2cc;strokeColor=#d6b656;" parent="1" vertex="1"><mxGeometry x="-240" y="60" width="400" height="200" as="geometry"/></mxCell><mxCell id="mBez1MrT5q8K6Kjs1nC1-8" value="OpenCompany" style="rounded=1;whiteSpace=wrap;html=1;fillColor=#dae8fc;strokeColor=#6c8ebf;" parent="1" vertex="1"><mxGeometry x="-220" y="160" width="170" height="60" as="geometry"/></mxCell><mxCell id="mBez1MrT5q8K6Kjs1nC1-9" value="CompanyOpend" style="rounded=1;whiteSpace=wrap;html=1;fillColor=#ffe6cc;strokeColor=#d79b00;" parent="1" vertex="1"><mxGeometry x="-30" y="160" width="170" height="60" as="geometry"/></mxCell><mxCell id="mBez1MrT5q8K6Kjs1nC1-10" value="&lt;h1&gt;Manager&lt;/h1&gt;&lt;div&gt;&lt;br&gt;&lt;/div&gt;&lt;div&gt;&lt;br&gt;&lt;/div&gt;&lt;div&gt;&lt;br&gt;&lt;/div&gt;&lt;div&gt;&lt;br&gt;&lt;/div&gt;&lt;div&gt;&lt;br&gt;&lt;/div&gt;&lt;div&gt;&lt;br&gt;&lt;/div&gt;" style="rounded=1;whiteSpace=wrap;html=1;fillColor=#fff2cc;strokeColor=#d6b656;" parent="1" vertex="1"><mxGeometry x="300" y="60" width="400" height="200" as="geometry"/></mxCell><mxCell id="mBez1MrT5q8K6Kjs1nC1-11" value="ManagerJoinsCompany" style="rounded=1;whiteSpace=wrap;html=1;fillColor=#dae8fc;strokeColor=#6c8ebf;" parent="1" vertex="1"><mxGeometry x="320" y="160" width="170" height="60" as="geometry"/></mxCell><mxCell id="mBez1MrT5q8K6Kjs1nC1-12" value="ManagerJoinedCompany" style="rounded=1;whiteSpace=wrap;html=1;fillColor=#ffe6cc;strokeColor=#d79b00;" parent="1" vertex="1"><mxGeometry x="510" y="160" width="170" height="60" as="geometry"/></mxCell><mxCell id="mBez1MrT5q8K6Kjs1nC1-13" value="&lt;h1&gt;Employee&lt;/h1&gt;&lt;div&gt;&lt;br&gt;&lt;/div&gt;&lt;div&gt;&lt;br&gt;&lt;/div&gt;&lt;div&gt;&lt;br&gt;&lt;/div&gt;&lt;div&gt;&lt;br&gt;&lt;/div&gt;&lt;div&gt;&lt;br&gt;&lt;/div&gt;&lt;div&gt;&lt;br&gt;&lt;/div&gt;" style="rounded=1;whiteSpace=wrap;html=1;fillColor=#fff2cc;strokeColor=#d6b656;" parent="1" vertex="1"><mxGeometry x="1241" y="60" width="400" height="200" as="geometry"/></mxCell><mxCell id="mBez1MrT5q8K6Kjs1nC1-14" value="HireEmployee" style="rounded=1;whiteSpace=wrap;html=1;fillColor=#dae8fc;strokeColor=#6c8ebf;" parent="1" vertex="1"><mxGeometry x="1261" y="160" width="170" height="60" as="geometry"/></mxCell><mxCell id="mBez1MrT5q8K6Kjs1nC1-15" value="EmployeeHired" style="rounded=1;whiteSpace=wrap;html=1;fillColor=#ffe6cc;strokeColor=#d79b00;" parent="1" vertex="1"><mxGeometry x="1451" y="160" width="170" height="60" as="geometry"/></mxCell><mxCell id="mBez1MrT5q8K6Kjs1nC1-16" value="&lt;h1&gt;Department&lt;/h1&gt;&lt;div&gt;&lt;br&gt;&lt;/div&gt;&lt;div&gt;&lt;br&gt;&lt;/div&gt;&lt;div&gt;&lt;br&gt;&lt;/div&gt;&lt;div&gt;&lt;br&gt;&lt;/div&gt;&lt;div&gt;&lt;br&gt;&lt;/div&gt;&lt;div&gt;&lt;br&gt;&lt;/div&gt;" style="rounded=1;whiteSpace=wrap;html=1;fillColor=#fff2cc;strokeColor=#d6b656;" parent="1" vertex="1"><mxGeometry x="780" y="60" width="400" height="200" as="geometry"/></mxCell><mxCell id="mBez1MrT5q8K6Kjs1nC1-17" value="OpenDepartment" style="rounded=1;whiteSpace=wrap;html=1;fillColor=#dae8fc;strokeColor=#6c8ebf;" parent="1" vertex="1"><mxGeometry x="800" y="160" width="170" height="60" as="geometry"/></mxCell><mxCell id="mBez1MrT5q8K6Kjs1nC1-18" value="DepartmentOpend" style="rounded=1;whiteSpace=wrap;html=1;fillColor=#ffe6cc;strokeColor=#d79b00;" parent="1" vertex="1"><mxGeometry x="990" y="160" width="170" height="60" as="geometry"/></mxCell></root></mxGraphModel></diagram><diagram id="GU2N_Vf82YmYc-pFi1z7" name="Hiring"><mxGraphModel dx="1883" dy="813" grid="1" gridSize="24" guides="1" tooltips="1" connect="1" arrows="1" fold="1" page="1" pageScale="1" pageWidth="1019" pageHeight="1320" math="0" shadow="0"><root><mxCell id="0"/><mxCell id="1" parent="0"/><mxCell id="E-fhsrGvc28FiKm95FOz-19" style="edgeStyle=orthogonalEdgeStyle;rounded=0;orthogonalLoop=1;jettySize=auto;html=1;entryX=0;entryY=0.5;entryDx=0;entryDy=0;labelBackgroundColor=none;" parent="1" source="E-fhsrGvc28FiKm95FOz-6" target="E-fhsrGvc28FiKm95FOz-18" edge="1"><mxGeometry relative="1" as="geometry"><Array as="points"><mxPoint x="40" y="620"/><mxPoint x="40" y="820"/></Array></mxGeometry></mxCell><mxCell id="E-fhsrGvc28FiKm95FOz-6" value="&lt;h1&gt;JobPosting&lt;/h1&gt;&lt;div&gt;&lt;br&gt;&lt;/div&gt;&lt;div&gt;&lt;br&gt;&lt;/div&gt;&lt;div&gt;&lt;br&gt;&lt;/div&gt;&lt;div&gt;&lt;br&gt;&lt;/div&gt;&lt;div&gt;&lt;br&gt;&lt;/div&gt;&lt;div&gt;&lt;br&gt;&lt;/div&gt;" style="rounded=1;whiteSpace=wrap;html=1;fillColor=#fff2cc;strokeColor=#d6b656;labelBackgroundColor=none;" parent="1" vertex="1"><mxGeometry x="-490" y="520" width="400" height="200" as="geometry"/></mxCell><mxCell id="E-fhsrGvc28FiKm95FOz-17" style="edgeStyle=orthogonalEdgeStyle;rounded=0;orthogonalLoop=1;jettySize=auto;html=1;entryX=0;entryY=0.5;entryDx=0;entryDy=0;labelBackgroundColor=none;" parent="1" source="E-fhsrGvc28FiKm95FOz-9" target="E-fhsrGvc28FiKm95FOz-18" edge="1"><mxGeometry relative="1" as="geometry"><mxPoint x="140" y="820" as="targetPoint"/><Array as="points"><mxPoint x="40" y="1030"/><mxPoint x="40" y="820"/></Array></mxGeometry></mxCell><mxCell id="E-fhsrGvc28FiKm95FOz-9" value="&lt;h1&gt;JobPosting&lt;/h1&gt;&lt;div&gt;&lt;br&gt;&lt;/div&gt;&lt;div&gt;&lt;br&gt;&lt;/div&gt;&lt;div&gt;&lt;br&gt;&lt;/div&gt;&lt;div&gt;&lt;br&gt;&lt;/div&gt;&lt;div&gt;&lt;br&gt;&lt;/div&gt;&lt;div&gt;&lt;br&gt;&lt;/div&gt;" style="rounded=1;whiteSpace=wrap;html=1;fillColor=#fff2cc;strokeColor=#d6b656;direction=east;labelBackgroundColor=none;" parent="1" vertex="1"><mxGeometry x="-490" y="930" width="410" height="200" as="geometry"/></mxCell><mxCell id="E-fhsrGvc28FiKm95FOz-10" value="PublishJobPostting" style="rounded=1;whiteSpace=wrap;html=1;fillColor=#dae8fc;strokeColor=#6c8ebf;labelBackgroundColor=none;" parent="1" vertex="1"><mxGeometry x="-480" y="1030" width="170" height="60" as="geometry"/></mxCell><mxCell id="E-fhsrGvc28FiKm95FOz-11" value="JobPostingPublished" style="rounded=1;whiteSpace=wrap;html=1;fillColor=#ffe6cc;strokeColor=#d79b00;labelBackgroundColor=none;" parent="1" vertex="1"><mxGeometry x="-280" y="1030" width="170" height="60" as="geometry"/></mxCell><mxCell id="E-fhsrGvc28FiKm95FOz-13" value="NewJobPosting" style="rounded=1;whiteSpace=wrap;html=1;fillColor=#dae8fc;strokeColor=#6c8ebf;labelBackgroundColor=none;" parent="1" vertex="1"><mxGeometry x="-470" y="620" width="170" height="60" as="geometry"/></mxCell><mxCell id="E-fhsrGvc28FiKm95FOz-14" value="JobPostingCreated" style="rounded=1;whiteSpace=wrap;html=1;fillColor=#ffe6cc;strokeColor=#d79b00;labelBackgroundColor=none;" parent="1" vertex="1"><mxGeometry x="-280" y="620" width="170" height="60" as="geometry"/></mxCell><mxCell id="E-fhsrGvc28FiKm95FOz-31" style="edgeStyle=orthogonalEdgeStyle;rounded=0;orthogonalLoop=1;jettySize=auto;html=1;entryX=0;entryY=0.5;entryDx=0;entryDy=0;labelBackgroundColor=none;" parent="1" source="E-fhsrGvc28FiKm95FOz-18" target="E-fhsrGvc28FiKm95FOz-32" edge="1"><mxGeometry relative="1" as="geometry"><mxPoint x="670.0000000000005" y="600" as="targetPoint"/><Array as="points"><mxPoint x="670" y="820"/><mxPoint x="670" y="620"/></Array></mxGeometry></mxCell><mxCell id="E-fhsrGvc28FiKm95FOz-35" style="edgeStyle=orthogonalEdgeStyle;rounded=0;orthogonalLoop=1;jettySize=auto;html=1;entryX=0;entryY=0.5;entryDx=0;entryDy=0;labelBackgroundColor=none;" parent="1" source="E-fhsrGvc28FiKm95FOz-18" target="E-fhsrGvc28FiKm95FOz-34" edge="1"><mxGeometry relative="1" as="geometry"><Array as="points"><mxPoint x="670" y="820"/><mxPoint x="670" y="1030"/></Array></mxGeometry></mxCell><mxCell id="E-fhsrGvc28FiKm95FOz-18" value="&lt;h1&gt;Canidates&lt;/h1&gt;&lt;div&gt;&lt;br&gt;&lt;/div&gt;&lt;div&gt;&lt;br&gt;&lt;/div&gt;&lt;div&gt;&lt;br&gt;&lt;/div&gt;&lt;div&gt;&lt;br&gt;&lt;/div&gt;&lt;div&gt;&lt;br&gt;&lt;/div&gt;&lt;div&gt;&lt;br&gt;&lt;/div&gt;" style="rounded=1;whiteSpace=wrap;html=1;fillColor=#fff2cc;strokeColor=#d6b656;labelBackgroundColor=none;" parent="1" vertex="1"><mxGeometry x="160" y="720" width="400" height="200" as="geometry"/></mxCell><mxCell id="E-fhsrGvc28FiKm95FOz-20" value="CanidateApplies" style="rounded=1;whiteSpace=wrap;html=1;fillColor=#dae8fc;strokeColor=#6c8ebf;labelBackgroundColor=none;" parent="1" vertex="1"><mxGeometry x="170" y="830" width="170" height="60" as="geometry"/></mxCell><mxCell id="E-fhsrGvc28FiKm95FOz-21" value="ApplicationAccepted" style="rounded=1;whiteSpace=wrap;html=1;fillColor=#ffe6cc;strokeColor=#d79b00;labelBackgroundColor=none;" parent="1" vertex="1"><mxGeometry x="370" y="830" width="170" height="60" as="geometry"/></mxCell><mxCell id="E-fhsrGvc28FiKm95FOz-57" style="edgeStyle=orthogonalEdgeStyle;rounded=0;orthogonalLoop=1;jettySize=auto;html=1;entryX=0;entryY=0.5;entryDx=0;entryDy=0;labelBackgroundColor=none;" parent="1" source="E-fhsrGvc28FiKm95FOz-25" target="E-fhsrGvc28FiKm95FOz-54" edge="1"><mxGeometry relative="1" as="geometry"/></mxCell><mxCell id="E-fhsrGvc28FiKm95FOz-25" value="&lt;h1&gt;Notification&lt;/h1&gt;&lt;div&gt;&lt;br&gt;&lt;/div&gt;&lt;div&gt;&lt;br&gt;&lt;/div&gt;&lt;div&gt;&lt;br&gt;&lt;/div&gt;&lt;div&gt;&lt;br&gt;&lt;/div&gt;&lt;div&gt;&lt;br&gt;&lt;/div&gt;&lt;div&gt;&lt;br&gt;&lt;/div&gt;" style="rounded=1;whiteSpace=wrap;html=1;fillColor=#fff2cc;strokeColor=#d6b656;labelBackgroundColor=none;" parent="1" vertex="1"><mxGeometry x="2054" y="710" width="400" height="200" as="geometry"/></mxCell><mxCell id="E-fhsrGvc28FiKm95FOz-27" value="NotifyCanidate" style="rounded=1;whiteSpace=wrap;html=1;fillColor=#dae8fc;strokeColor=#6c8ebf;labelBackgroundColor=none;" parent="1" vertex="1"><mxGeometry x="2065" y="820" width="170" height="60" as="geometry"/></mxCell><mxCell id="E-fhsrGvc28FiKm95FOz-30" value="CanidateNotified" style="rounded=1;whiteSpace=wrap;html=1;fillColor=#ffe6cc;strokeColor=#d79b00;labelBackgroundColor=none;" parent="1" vertex="1"><mxGeometry x="2275" y="820" width="170" height="60" as="geometry"/></mxCell><mxCell id="E-fhsrGvc28FiKm95FOz-40" style="edgeStyle=orthogonalEdgeStyle;rounded=0;orthogonalLoop=1;jettySize=auto;html=1;labelBackgroundColor=none;" parent="1" source="E-fhsrGvc28FiKm95FOz-32" edge="1"><mxGeometry relative="1" as="geometry"><mxPoint x="1420" y="620" as="targetPoint"/></mxGeometry></mxCell><mxCell id="E-fhsrGvc28FiKm95FOz-50" style="edgeStyle=orthogonalEdgeStyle;rounded=0;orthogonalLoop=1;jettySize=auto;html=1;entryX=0;entryY=0.5;entryDx=0;entryDy=0;labelBackgroundColor=none;" parent="1" source="E-fhsrGvc28FiKm95FOz-34" target="E-fhsrGvc28FiKm95FOz-25" edge="1"><mxGeometry relative="1" as="geometry"><Array as="points"><mxPoint x="1970" y="1030"/><mxPoint x="1970" y="810"/></Array></mxGeometry></mxCell><mxCell id="E-fhsrGvc28FiKm95FOz-34" value="&lt;h1&gt;Canidates&lt;/h1&gt;&lt;div&gt;&lt;br&gt;&lt;/div&gt;&lt;div&gt;&lt;br&gt;&lt;/div&gt;&lt;div&gt;&lt;br&gt;&lt;/div&gt;&lt;div&gt;&lt;br&gt;&lt;/div&gt;&lt;div&gt;&lt;br&gt;&lt;/div&gt;&lt;div&gt;&lt;br&gt;&lt;/div&gt;" style="rounded=1;whiteSpace=wrap;html=1;fillColor=#fff2cc;strokeColor=#d6b656;labelBackgroundColor=none;" parent="1" vertex="1"><mxGeometry x="792" y="930" width="400" height="200" as="geometry"/></mxCell><mxCell id="E-fhsrGvc28FiKm95FOz-38" value="RejectApplication" style="rounded=1;whiteSpace=wrap;html=1;fillColor=#dae8fc;strokeColor=#6c8ebf;labelBackgroundColor=none;" parent="1" vertex="1"><mxGeometry x="812" y="1040" width="170" height="60" as="geometry"/></mxCell><mxCell id="E-fhsrGvc28FiKm95FOz-39" value="AplicationRejected" style="rounded=1;whiteSpace=wrap;html=1;fillColor=#ffe6cc;strokeColor=#d79b00;labelBackgroundColor=none;" parent="1" vertex="1"><mxGeometry x="1012" y="1040" width="170" height="60" as="geometry"/></mxCell><mxCell id="E-fhsrGvc28FiKm95FOz-51" style="edgeStyle=orthogonalEdgeStyle;rounded=0;orthogonalLoop=1;jettySize=auto;html=1;entryX=0;entryY=0.5;entryDx=0;entryDy=0;labelBackgroundColor=none;" parent="1" source="E-fhsrGvc28FiKm95FOz-42" target="E-fhsrGvc28FiKm95FOz-25" edge="1"><mxGeometry relative="1" as="geometry"><Array as="points"><mxPoint x="1970" y="620"/><mxPoint x="1970" y="810"/></Array></mxGeometry></mxCell><mxCell id="E-fhsrGvc28FiKm95FOz-42" value="&lt;h1&gt;Interview&lt;/h1&gt;&lt;div&gt;&lt;br&gt;&lt;/div&gt;&lt;div&gt;&lt;br&gt;&lt;/div&gt;&lt;div&gt;&lt;br&gt;&lt;/div&gt;&lt;div&gt;&lt;br&gt;&lt;/div&gt;&lt;div&gt;&lt;br&gt;&lt;/div&gt;&lt;div&gt;&lt;br&gt;&lt;/div&gt;" style="rounded=1;whiteSpace=wrap;html=1;fillColor=#fff2cc;strokeColor=#d6b656;labelBackgroundColor=none;" parent="1" vertex="1"><mxGeometry x="1420" y="520" width="410" height="200" as="geometry"/></mxCell><mxCell id="E-fhsrGvc28FiKm95FOz-45" value="GenerateInterview" style="rounded=1;whiteSpace=wrap;html=1;fillColor=#dae8fc;strokeColor=#6c8ebf;labelBackgroundColor=none;" parent="1" vertex="1"><mxGeometry x="1430" y="630" width="170" height="60" as="geometry"/></mxCell><mxCell id="E-fhsrGvc28FiKm95FOz-46" value="InterviewGenerated" style="rounded=1;whiteSpace=wrap;html=1;fillColor=#ffe6cc;strokeColor=#d79b00;labelBackgroundColor=none;" parent="1" vertex="1"><mxGeometry x="1650" y="630" width="170" height="60" as="geometry"/></mxCell><mxCell id="E-fhsrGvc28FiKm95FOz-66" style="edgeStyle=orthogonalEdgeStyle;rounded=0;orthogonalLoop=1;jettySize=auto;html=1;entryX=0;entryY=0.5;entryDx=0;entryDy=0;labelBackgroundColor=none;" parent="1" source="E-fhsrGvc28FiKm95FOz-54" target="E-fhsrGvc28FiKm95FOz-63" edge="1"><mxGeometry relative="1" as="geometry"><Array as="points"><mxPoint x="3270" y="795.5"/><mxPoint x="3270" y="800.5"/></Array></mxGeometry></mxCell><mxCell id="E-fhsrGvc28FiKm95FOz-54" value="&lt;h1&gt;Interview&lt;/h1&gt;&lt;div&gt;&lt;br&gt;&lt;/div&gt;&lt;div&gt;&lt;br&gt;&lt;/div&gt;&lt;div&gt;&lt;br&gt;&lt;/div&gt;&lt;div&gt;&lt;br&gt;&lt;/div&gt;&lt;div&gt;&lt;br&gt;&lt;/div&gt;&lt;div&gt;&lt;br&gt;&lt;/div&gt;" style="rounded=1;whiteSpace=wrap;html=1;fillColor=#fff2cc;strokeColor=#d6b656;labelBackgroundColor=none;" parent="1" vertex="1"><mxGeometry x="2591" y="709.5" width="409" height="200" as="geometry"/></mxCell><mxCell id="E-fhsrGvc28FiKm95FOz-55" value="AcceptInterview" style="rounded=1;whiteSpace=wrap;html=1;fillColor=#dae8fc;strokeColor=#6c8ebf;labelBackgroundColor=none;" parent="1" vertex="1"><mxGeometry x="2611" y="815.5" width="170" height="60" as="geometry"/></mxCell><mxCell id="E-fhsrGvc28FiKm95FOz-56" value="InterviewAccepted" style="rounded=1;whiteSpace=wrap;html=1;fillColor=#ffe6cc;strokeColor=#d79b00;labelBackgroundColor=none;" parent="1" vertex="1"><mxGeometry x="2821" y="815.5" width="170" height="60" as="geometry"/></mxCell><mxCell id="E-fhsrGvc28FiKm95FOz-79" style="edgeStyle=orthogonalEdgeStyle;rounded=0;orthogonalLoop=1;jettySize=auto;html=1;entryX=0;entryY=0.5;entryDx=0;entryDy=0;exitX=1;exitY=0.5;exitDx=0;exitDy=0;labelBackgroundColor=none;" parent="1" source="cPy2L2v7XweDfyy5AXqs-2" target="E-fhsrGvc28FiKm95FOz-76" edge="1"><mxGeometry relative="1" as="geometry"/></mxCell><mxCell id="E-fhsrGvc28FiKm95FOz-80" style="edgeStyle=orthogonalEdgeStyle;rounded=0;orthogonalLoop=1;jettySize=auto;html=1;exitX=1;exitY=0.5;exitDx=0;exitDy=0;labelBackgroundColor=none;" parent="1" source="cPy2L2v7XweDfyy5AXqs-2" target="E-fhsrGvc28FiKm95FOz-73" edge="1"><mxGeometry relative="1" as="geometry"/></mxCell><mxCell id="cPy2L2v7XweDfyy5AXqs-5" style="edgeStyle=orthogonalEdgeStyle;rounded=0;orthogonalLoop=1;jettySize=auto;html=1;labelBackgroundColor=none;" parent="1" source="E-fhsrGvc28FiKm95FOz-63" target="cPy2L2v7XweDfyy5AXqs-2" edge="1"><mxGeometry relative="1" as="geometry"/></mxCell><mxCell id="E-fhsrGvc28FiKm95FOz-63" value="&lt;h1&gt;Interview&lt;/h1&gt;&lt;div&gt;&lt;br&gt;&lt;/div&gt;&lt;div&gt;&lt;br&gt;&lt;/div&gt;&lt;div&gt;&lt;br&gt;&lt;/div&gt;&lt;div&gt;&lt;br&gt;&lt;/div&gt;&lt;div&gt;&lt;br&gt;&lt;/div&gt;&lt;div&gt;&lt;br&gt;&lt;/div&gt;" style="rounded=1;whiteSpace=wrap;html=1;fillColor=#fff2cc;strokeColor=#d6b656;labelBackgroundColor=none;" parent="1" vertex="1"><mxGeometry x="3144" y="691" width="450" height="200" as="geometry"/></mxCell><mxCell id="E-fhsrGvc28FiKm95FOz-64" value="LaunchInterview" style="rounded=1;whiteSpace=wrap;html=1;fillColor=#dae8fc;strokeColor=#6c8ebf;labelBackgroundColor=none;" parent="1" vertex="1"><mxGeometry x="3155" y="801" width="219" height="60" as="geometry"/></mxCell><mxCell id="E-fhsrGvc28FiKm95FOz-65" value="InterviewLaunched" style="rounded=1;whiteSpace=wrap;html=1;fillColor=#ffe6cc;strokeColor=#d79b00;labelBackgroundColor=none;" parent="1" vertex="1"><mxGeometry x="3404" y="801" width="170" height="60" as="geometry"/></mxCell><mxCell id="E-fhsrGvc28FiKm95FOz-81" style="edgeStyle=orthogonalEdgeStyle;rounded=0;orthogonalLoop=1;jettySize=auto;html=1;labelBackgroundColor=none;" parent="1" source="E-fhsrGvc28FiKm95FOz-73" edge="1"><mxGeometry relative="1" as="geometry"><mxPoint x="5285.000000000001" y="601" as="targetPoint"/></mxGeometry></mxCell><mxCell id="E-fhsrGvc28FiKm95FOz-73" value="&lt;h1&gt;Canidates&lt;/h1&gt;&lt;div&gt;&lt;br&gt;&lt;/div&gt;&lt;div&gt;&lt;br&gt;&lt;/div&gt;&lt;div&gt;&lt;br&gt;&lt;/div&gt;&lt;div&gt;&lt;br&gt;&lt;/div&gt;&lt;div&gt;&lt;br&gt;&lt;/div&gt;&lt;div&gt;&lt;br&gt;&lt;/div&gt;" style="rounded=1;whiteSpace=wrap;html=1;fillColor=#fff2cc;strokeColor=#d6b656;labelBackgroundColor=none;" parent="1" vertex="1"><mxGeometry x="4715" y="501" width="400" height="200" as="geometry"/></mxCell><mxCell id="E-fhsrGvc28FiKm95FOz-74" value="AdoptCandidate" style="rounded=1;whiteSpace=wrap;html=1;fillColor=#dae8fc;strokeColor=#6c8ebf;labelBackgroundColor=none;" parent="1" vertex="1"><mxGeometry x="4725" y="611" width="170" height="60" as="geometry"/></mxCell><mxCell id="E-fhsrGvc28FiKm95FOz-75" value="CandidateAdopted" style="rounded=1;whiteSpace=wrap;html=1;fillColor=#ffe6cc;strokeColor=#d79b00;labelBackgroundColor=none;" parent="1" vertex="1"><mxGeometry x="4935" y="611" width="170" height="60" as="geometry"/></mxCell><mxCell id="E-fhsrGvc28FiKm95FOz-91" style="edgeStyle=orthogonalEdgeStyle;rounded=0;orthogonalLoop=1;jettySize=auto;html=1;entryX=0;entryY=0.5;entryDx=0;entryDy=0;labelBackgroundColor=none;" parent="1" source="E-fhsrGvc28FiKm95FOz-76" edge="1"><mxGeometry relative="1" as="geometry"><mxPoint x="5855" y="800" as="targetPoint"/><Array as="points"><mxPoint x="5765" y="1000"/><mxPoint x="5765" y="800"/></Array></mxGeometry></mxCell><mxCell id="E-fhsrGvc28FiKm95FOz-76" value="&lt;h1&gt;Canidates&lt;/h1&gt;&lt;div&gt;&lt;br&gt;&lt;/div&gt;&lt;div&gt;&lt;br&gt;&lt;/div&gt;&lt;div&gt;&lt;br&gt;&lt;/div&gt;&lt;div&gt;&lt;br&gt;&lt;/div&gt;&lt;div&gt;&lt;br&gt;&lt;/div&gt;&lt;div&gt;&lt;br&gt;&lt;/div&gt;" style="rounded=1;whiteSpace=wrap;html=1;fillColor=#fff2cc;strokeColor=#d6b656;labelBackgroundColor=none;" parent="1" vertex="1"><mxGeometry x="4714" y="900" width="400" height="200" as="geometry"/></mxCell><mxCell id="E-fhsrGvc28FiKm95FOz-77" value="RejectCanidate" style="rounded=1;whiteSpace=wrap;html=1;fillColor=#dae8fc;strokeColor=#6c8ebf;labelBackgroundColor=none;" parent="1" vertex="1"><mxGeometry x="4724" y="1010" width="170" height="60" as="geometry"/></mxCell><mxCell id="E-fhsrGvc28FiKm95FOz-78" value="CandidateRejected" style="rounded=1;whiteSpace=wrap;html=1;fillColor=#ffe6cc;strokeColor=#d79b00;labelBackgroundColor=none;" parent="1" vertex="1"><mxGeometry x="4934" y="1010" width="170" height="60" as="geometry"/></mxCell><mxCell id="E-fhsrGvc28FiKm95FOz-92" style="edgeStyle=orthogonalEdgeStyle;rounded=0;orthogonalLoop=1;jettySize=auto;html=1;labelBackgroundColor=none;" parent="1" source="E-fhsrGvc28FiKm95FOz-85" edge="1"><mxGeometry relative="1" as="geometry"><mxPoint x="5855" y="799.9999999999991" as="targetPoint"/><Array as="points"><mxPoint x="5765" y="601"/><mxPoint x="5765" y="800"/></Array></mxGeometry></mxCell><mxCell id="E-fhsrGvc28FiKm95FOz-85" value="&lt;h1&gt;Employee&lt;/h1&gt;&lt;div&gt;&lt;br&gt;&lt;/div&gt;&lt;div&gt;&lt;br&gt;&lt;/div&gt;&lt;div&gt;&lt;br&gt;&lt;/div&gt;&lt;div&gt;&lt;br&gt;&lt;/div&gt;&lt;div&gt;&lt;br&gt;&lt;/div&gt;&lt;div&gt;&lt;br&gt;&lt;/div&gt;" style="rounded=1;whiteSpace=wrap;html=1;fillColor=#fff2cc;strokeColor=#d6b656;labelBackgroundColor=none;" parent="1" vertex="1"><mxGeometry x="5285" y="501" width="400" height="200" as="geometry"/></mxCell><mxCell id="E-fhsrGvc28FiKm95FOz-86" value="HireEmployee" style="rounded=1;whiteSpace=wrap;html=1;fillColor=#dae8fc;strokeColor=#6c8ebf;labelBackgroundColor=none;" parent="1" vertex="1"><mxGeometry x="5295" y="611" width="170" height="60" as="geometry"/></mxCell><mxCell id="E-fhsrGvc28FiKm95FOz-87" value="EmployeeHired" style="rounded=1;whiteSpace=wrap;html=1;fillColor=#ffe6cc;strokeColor=#d79b00;labelBackgroundColor=none;" parent="1" vertex="1"><mxGeometry x="5505" y="616" width="170" height="55" as="geometry"/></mxCell><mxCell id="E-fhsrGvc28FiKm95FOz-88" value="&lt;h1&gt;Notification&lt;/h1&gt;&lt;div&gt;&lt;br&gt;&lt;/div&gt;&lt;div&gt;&lt;br&gt;&lt;/div&gt;&lt;div&gt;&lt;br&gt;&lt;/div&gt;&lt;div&gt;&lt;br&gt;&lt;/div&gt;&lt;div&gt;&lt;br&gt;&lt;/div&gt;&lt;div&gt;&lt;br&gt;&lt;/div&gt;" style="rounded=1;whiteSpace=wrap;html=1;fillColor=#fff2cc;strokeColor=#d6b656;labelBackgroundColor=none;" parent="1" vertex="1"><mxGeometry x="5855" y="701" width="400" height="200" as="geometry"/></mxCell><mxCell id="E-fhsrGvc28FiKm95FOz-89" value="NotifyCanidate" style="rounded=1;whiteSpace=wrap;html=1;fillColor=#dae8fc;strokeColor=#6c8ebf;labelBackgroundColor=none;" parent="1" vertex="1"><mxGeometry x="5866" y="810" width="170" height="60" as="geometry"/></mxCell><mxCell id="E-fhsrGvc28FiKm95FOz-90" value="CanidateNotified" style="rounded=1;whiteSpace=wrap;html=1;fillColor=#ffe6cc;strokeColor=#d79b00;labelBackgroundColor=none;" parent="1" vertex="1"><mxGeometry x="6076" y="811" width="170" height="60" as="geometry"/></mxCell><mxCell id="E-fhsrGvc28FiKm95FOz-93" value="&lt;h1 style=&quot;font-size: 100px;&quot;&gt;Hiring&lt;/h1&gt;" style="rounded=0;whiteSpace=wrap;html=1;labelBackgroundColor=none;" parent="1" vertex="1"><mxGeometry x="2050" y="130" width="970" height="230" as="geometry"/></mxCell><mxCell id="HY2VaPwYE4j9fEDutfqC-2" value="Vertragsunterlagen zusenden" style="rounded=0;whiteSpace=wrap;html=1;labelBackgroundColor=none;" parent="1" vertex="1"><mxGeometry x="5000" y="130" width="440" height="130" as="geometry"/></mxCell><mxCell id="moQR4QfuiYKX7VwPxTYO-3" value="Vertragsunterlagen unterzeichnen" style="rounded=0;whiteSpace=wrap;html=1;labelBackgroundColor=none;" parent="1" vertex="1"><mxGeometry x="5530" y="130" width="440" height="130" as="geometry"/></mxCell><mxCell id="cPy2L2v7XweDfyy5AXqs-2" value="&lt;h1&gt;Interview&lt;/h1&gt;&lt;div&gt;&lt;br&gt;&lt;/div&gt;&lt;div&gt;&lt;br&gt;&lt;/div&gt;&lt;div&gt;&lt;br&gt;&lt;/div&gt;&lt;div&gt;&lt;br&gt;&lt;/div&gt;&lt;div&gt;&lt;br&gt;&lt;/div&gt;&lt;div&gt;&lt;br&gt;&lt;/div&gt;" style="rounded=1;whiteSpace=wrap;html=1;fillColor=#fff2cc;strokeColor=#d6b656;labelBackgroundColor=none;" parent="1" vertex="1"><mxGeometry x="3794" y="691" width="450" height="200" as="geometry"/></mxCell><mxCell id="cPy2L2v7XweDfyy5AXqs-3" value="EndInterviewExecution" style="rounded=1;whiteSpace=wrap;html=1;fillColor=#dae8fc;strokeColor=#6c8ebf;labelBackgroundColor=none;" parent="1" vertex="1"><mxGeometry x="3805" y="801" width="219" height="60" as="geometry"/></mxCell><mxCell id="cPy2L2v7XweDfyy5AXqs-4" value="InterviewCarriedOut" style="rounded=1;whiteSpace=wrap;html=1;fillColor=#ffe6cc;strokeColor=#d79b00;labelBackgroundColor=none;" parent="1" vertex="1"><mxGeometry x="4054" y="801" width="170" height="60" as="geometry"/></mxCell><mxCell id="s4kHaaaJ53u9Z8akIyjl-1" value="Manager" style="shape=umlActor;verticalLabelPosition=bottom;verticalAlign=top;html=1;outlineConnect=0;fontSize=36;labelBackgroundColor=none;" parent="1" vertex="1"><mxGeometry x="-142" y="384" width="90" height="162" as="geometry"/></mxCell><mxCell id="s4kHaaaJ53u9Z8akIyjl-13" value="Manager" style="shape=umlActor;verticalLabelPosition=bottom;verticalAlign=top;html=1;outlineConnect=0;fontSize=36;labelBackgroundColor=none;" parent="1" vertex="1"><mxGeometry x="-142" y="792" width="90" height="162" as="geometry"/></mxCell><mxCell id="s4kHaaaJ53u9Z8akIyjl-14" value="Candidate" style="shape=umlActor;verticalLabelPosition=bottom;verticalAlign=top;html=1;outlineConnect=0;fontSize=36;labelBackgroundColor=none;" parent="1" vertex="1"><mxGeometry x="510" y="579" width="90" height="162" as="geometry"/></mxCell><mxCell id="s4kHaaaJ53u9Z8akIyjl-15" value="Manager" style="shape=umlActor;verticalLabelPosition=bottom;verticalAlign=top;html=1;outlineConnect=0;fontSize=36;labelBackgroundColor=none;" parent="1" vertex="1"><mxGeometry x="1132" y="792" width="90" height="162" as="geometry"/></mxCell><mxCell id="s4kHaaaJ53u9Z8akIyjl-21" value="&lt;div style=&quot;text-align: start;&quot;&gt;&lt;span style=&quot;background-color: initial; font-size: 16px;&quot;&gt;&lt;font face=&quot;Söhne, ui-sans-serif, system-ui, -apple-system, Segoe UI, Roboto, Ubuntu, Cantarell, Noto Sans, sans-serif, Helvetica Neue, Arial, Apple Color Emoji, Segoe UI Emoji, Segoe UI Symbol, Noto Color Emoji&quot;&gt;Manual from Manager or Automatic by AppointmentAPI&lt;/font&gt;&lt;/span&gt;&lt;/div&gt;" style="rounded=0;whiteSpace=wrap;html=1;labelBackgroundColor=none;" parent="1" vertex="1"><mxGeometry x="3614" y="509" width="440" height="151" as="geometry"/></mxCell><mxCell id="s4kHaaaJ53u9Z8akIyjl-23" value="Manager" style="shape=umlActor;verticalLabelPosition=bottom;verticalAlign=top;html=1;outlineConnect=0;fontSize=36;labelBackgroundColor=none;" parent="1" vertex="1"><mxGeometry x="5040" y="384" width="90" height="162" as="geometry"/></mxCell><mxCell id="s4kHaaaJ53u9Z8akIyjl-24" value="Manager" style="shape=umlActor;verticalLabelPosition=bottom;verticalAlign=top;html=1;outlineConnect=0;fontSize=36;labelBackgroundColor=none;" parent="1" vertex="1"><mxGeometry x="5064" y="792" width="90" height="162" as="geometry"/></mxCell><mxCell id="7cOcLLygNU5qxT77hyOI-1" value="&lt;span style=&quot;font-family: Söhne, ui-sans-serif, system-ui, -apple-system, &amp;quot;Segoe UI&amp;quot;, Roboto, Ubuntu, Cantarell, &amp;quot;Noto Sans&amp;quot;, sans-serif, &amp;quot;Helvetica Neue&amp;quot;, Arial, &amp;quot;Apple Color Emoji&amp;quot;, &amp;quot;Segoe UI Emoji&amp;quot;, &amp;quot;Segoe UI Symbol&amp;quot;, &amp;quot;Noto Color Emoji&amp;quot;; font-size: 16px; text-align: start;&quot;&gt;Die Bewerbungsunterlagen werden an die Document Api geschickt und&amp;nbsp;&lt;/span&gt;" style="rounded=0;whiteSpace=wrap;html=1;labelBackgroundColor=none;" parent="1" vertex="1"><mxGeometry x="70" y="520" width="440" height="151" as="geometry"/></mxCell><mxCell id="ofSFLbjuNXNIxYyNz8a0-1" value="" style="group" parent="1" vertex="1" connectable="0"><mxGeometry x="792" y="384" width="430" height="336" as="geometry"/></mxCell><mxCell id="E-fhsrGvc28FiKm95FOz-32" value="&lt;h1&gt;Canidates&lt;/h1&gt;&lt;div&gt;&lt;br&gt;&lt;/div&gt;&lt;div&gt;&lt;br&gt;&lt;/div&gt;&lt;div&gt;&lt;br&gt;&lt;/div&gt;&lt;div&gt;&lt;br&gt;&lt;/div&gt;&lt;div&gt;&lt;br&gt;&lt;/div&gt;&lt;div&gt;&lt;br&gt;&lt;/div&gt;" style="rounded=1;whiteSpace=wrap;html=1;fillColor=#fff2cc;strokeColor=#d6b656;labelBackgroundColor=none;" parent="ofSFLbjuNXNIxYyNz8a0-1" vertex="1"><mxGeometry y="136" width="400" height="200" as="geometry"/></mxCell><mxCell id="E-fhsrGvc28FiKm95FOz-36" value="ApproveApplication" style="rounded=1;whiteSpace=wrap;html=1;fillColor=#dae8fc;strokeColor=#6c8ebf;labelBackgroundColor=none;" parent="ofSFLbjuNXNIxYyNz8a0-1" vertex="1"><mxGeometry x="10" y="246" width="170" height="60" as="geometry"/></mxCell><mxCell id="E-fhsrGvc28FiKm95FOz-37" value="ApplicationApproved" style="rounded=1;whiteSpace=wrap;html=1;fillColor=#ffe6cc;strokeColor=#d79b00;labelBackgroundColor=none;" parent="ofSFLbjuNXNIxYyNz8a0-1" vertex="1"><mxGeometry x="220" y="246" width="170" height="60" as="geometry"/></mxCell><mxCell id="s4kHaaaJ53u9Z8akIyjl-16" value="Manager" style="shape=umlActor;verticalLabelPosition=bottom;verticalAlign=top;html=1;outlineConnect=0;fontSize=36;labelBackgroundColor=none;" parent="ofSFLbjuNXNIxYyNz8a0-1" vertex="1"><mxGeometry x="340" width="90" height="162" as="geometry"/></mxCell><mxCell id="8eFKB3d0kiqIVbq25n3g-1" value="Hiring" style="shape=umlActor;verticalLabelPosition=bottom;verticalAlign=top;html=1;outlineConnect=0;fontSize=36;labelBackgroundColor=none;" parent="1" vertex="1"><mxGeometry x="1752" y="384" width="90" height="162" as="geometry"/></mxCell><mxCell id="8eFKB3d0kiqIVbq25n3g-2" value="Hiring" style="shape=umlActor;verticalLabelPosition=bottom;verticalAlign=top;html=1;outlineConnect=0;fontSize=36;labelBackgroundColor=none;" parent="1" vertex="1"><mxGeometry x="2930" y="579" width="90" height="162" as="geometry"/></mxCell><mxCell id="7BCG3bLk6rOAMV0kGZkd-1" value="Appointment" style="shape=umlActor;verticalLabelPosition=bottom;verticalAlign=top;html=1;outlineConnect=0;fontSize=36;labelBackgroundColor=none;" parent="1" vertex="1"><mxGeometry x="3524" y="558" width="90" height="162" as="geometry"/></mxCell></root></mxGraphModel></diagram><diagram id="9JynJpuBBQ_eZeBbNQA9" name="Vacation"><mxGraphModel dx="4901" dy="2540" grid="1" gridSize="10" guides="1" tooltips="1" connect="1" arrows="1" fold="1" page="1" pageScale="1" pageWidth="827" pageHeight="1169" math="0" shadow="0"><root><mxCell id="0"/><mxCell id="1" parent="0"/><mxCell id="8rdlgFkCfrhCTXILyy_g-1" value="&lt;h1&gt;Vacation&lt;/h1&gt;&lt;div&gt;&lt;br&gt;&lt;/div&gt;&lt;div&gt;&lt;br&gt;&lt;/div&gt;&lt;div&gt;&lt;br&gt;&lt;/div&gt;&lt;div&gt;&lt;br&gt;&lt;/div&gt;&lt;div&gt;&lt;br&gt;&lt;/div&gt;&lt;div&gt;&lt;br&gt;&lt;/div&gt;" style="rounded=1;whiteSpace=wrap;html=1;fillColor=#fff2cc;strokeColor=#d6b656;" parent="1" vertex="1"><mxGeometry x="-750" y="230" width="400" height="200" as="geometry"/></mxCell><mxCell id="8rdlgFkCfrhCTXILyy_g-2" value="SubmitVacationRequest" style="rounded=1;whiteSpace=wrap;html=1;fillColor=#dae8fc;strokeColor=#6c8ebf;" parent="1" vertex="1"><mxGeometry x="-730" y="330" width="170" height="60" as="geometry"/></mxCell><mxCell id="8rdlgFkCfrhCTXILyy_g-3" value="VacationRequestSubmitted" style="rounded=1;whiteSpace=wrap;html=1;fillColor=#ffe6cc;strokeColor=#d79b00;" parent="1" vertex="1"><mxGeometry x="-540" y="330" width="170" height="60" as="geometry"/></mxCell><mxCell id="8rdlgFkCfrhCTXILyy_g-4" value="&lt;h1&gt;Vacation&lt;/h1&gt;&lt;div&gt;&lt;br&gt;&lt;/div&gt;&lt;div&gt;&lt;br&gt;&lt;/div&gt;&lt;div&gt;&lt;br&gt;&lt;/div&gt;&lt;div&gt;&lt;br&gt;&lt;/div&gt;&lt;div&gt;&lt;br&gt;&lt;/div&gt;&lt;div&gt;&lt;br&gt;&lt;/div&gt;" style="rounded=1;whiteSpace=wrap;html=1;fillColor=#fff2cc;strokeColor=#d6b656;" parent="1" vertex="1"><mxGeometry x="-170" y="80" width="400" height="200" as="geometry"/></mxCell><mxCell id="8rdlgFkCfrhCTXILyy_g-5" value="ApproveVacation" style="rounded=1;whiteSpace=wrap;html=1;fillColor=#dae8fc;strokeColor=#6c8ebf;" parent="1" vertex="1"><mxGeometry x="-149" y="180" width="170" height="60" as="geometry"/></mxCell><mxCell id="8rdlgFkCfrhCTXILyy_g-6" value="VacationApproved" style="rounded=1;whiteSpace=wrap;html=1;fillColor=#ffe6cc;strokeColor=#d79b00;" parent="1" vertex="1"><mxGeometry x="40" y="180" width="170" height="60" as="geometry"/></mxCell><mxCell id="8rdlgFkCfrhCTXILyy_g-7" value="&lt;h1&gt;Vacation&lt;/h1&gt;&lt;div&gt;&lt;br&gt;&lt;/div&gt;&lt;div&gt;&lt;br&gt;&lt;/div&gt;&lt;div&gt;&lt;br&gt;&lt;/div&gt;&lt;div&gt;&lt;br&gt;&lt;/div&gt;&lt;div&gt;&lt;br&gt;&lt;/div&gt;&lt;div&gt;&lt;br&gt;&lt;/div&gt;" style="rounded=1;whiteSpace=wrap;html=1;fillColor=#fff2cc;strokeColor=#d6b656;" parent="1" vertex="1"><mxGeometry x="-170" y="390" width="400" height="200" as="geometry"/></mxCell><mxCell id="8rdlgFkCfrhCTXILyy_g-8" value="VacationRejected" style="rounded=1;whiteSpace=wrap;html=1;fillColor=#dae8fc;strokeColor=#6c8ebf;" parent="1" vertex="1"><mxGeometry x="-149" y="490" width="170" height="60" as="geometry"/></mxCell><mxCell id="8rdlgFkCfrhCTXILyy_g-9" value="VacationRejected" style="rounded=1;whiteSpace=wrap;html=1;fillColor=#ffe6cc;strokeColor=#d79b00;" parent="1" vertex="1"><mxGeometry x="40" y="490" width="170" height="60" as="geometry"/></mxCell><mxCell id="0468SQZIPKXFU5IZXLyd-4" value="&lt;h1&gt;Vacation&lt;/h1&gt;&lt;div&gt;&lt;br&gt;&lt;/div&gt;&lt;div&gt;&lt;br&gt;&lt;/div&gt;&lt;div&gt;&lt;br&gt;&lt;/div&gt;&lt;div&gt;&lt;br&gt;&lt;/div&gt;&lt;div&gt;&lt;br&gt;&lt;/div&gt;&lt;div&gt;&lt;br&gt;&lt;/div&gt;" style="rounded=1;whiteSpace=wrap;html=1;fillColor=#fff2cc;strokeColor=#d6b656;" parent="1" vertex="1"><mxGeometry x="-760" y="910" width="400" height="200" as="geometry"/></mxCell><mxCell id="0468SQZIPKXFU5IZXLyd-5" value="RequestCancelation" style="rounded=1;whiteSpace=wrap;html=1;fillColor=#dae8fc;strokeColor=#6c8ebf;" parent="1" vertex="1"><mxGeometry x="-740" y="1010" width="170" height="60" as="geometry"/></mxCell><mxCell id="0468SQZIPKXFU5IZXLyd-6" value="CancelationRequested" style="rounded=1;whiteSpace=wrap;html=1;fillColor=#ffe6cc;strokeColor=#d79b00;" parent="1" vertex="1"><mxGeometry x="-550" y="1010" width="170" height="60" as="geometry"/></mxCell><mxCell id="0468SQZIPKXFU5IZXLyd-7" value="&lt;h1&gt;Vacation&lt;/h1&gt;&lt;div&gt;&lt;br&gt;&lt;/div&gt;&lt;div&gt;&lt;br&gt;&lt;/div&gt;&lt;div&gt;&lt;br&gt;&lt;/div&gt;&lt;div&gt;&lt;br&gt;&lt;/div&gt;&lt;div&gt;&lt;br&gt;&lt;/div&gt;&lt;div&gt;&lt;br&gt;&lt;/div&gt;" style="rounded=1;whiteSpace=wrap;html=1;fillColor=#fff2cc;strokeColor=#d6b656;" parent="1" vertex="1"><mxGeometry x="-180" y="760" width="400" height="200" as="geometry"/></mxCell><mxCell id="0468SQZIPKXFU5IZXLyd-8" value="Cancel" style="rounded=1;whiteSpace=wrap;html=1;fillColor=#dae8fc;strokeColor=#6c8ebf;" parent="1" vertex="1"><mxGeometry x="-159" y="860" width="170" height="60" as="geometry"/></mxCell><mxCell id="0468SQZIPKXFU5IZXLyd-9" value="Canceled" style="rounded=1;whiteSpace=wrap;html=1;fillColor=#ffe6cc;strokeColor=#d79b00;" parent="1" vertex="1"><mxGeometry x="30" y="860" width="170" height="60" as="geometry"/></mxCell><mxCell id="0468SQZIPKXFU5IZXLyd-10" value="&lt;h1&gt;Vacation&lt;/h1&gt;&lt;div&gt;&lt;br&gt;&lt;/div&gt;&lt;div&gt;&lt;br&gt;&lt;/div&gt;&lt;div&gt;&lt;br&gt;&lt;/div&gt;&lt;div&gt;&lt;br&gt;&lt;/div&gt;&lt;div&gt;&lt;br&gt;&lt;/div&gt;&lt;div&gt;&lt;br&gt;&lt;/div&gt;" style="rounded=1;whiteSpace=wrap;html=1;fillColor=#fff2cc;strokeColor=#d6b656;" parent="1" vertex="1"><mxGeometry x="-180" y="1070" width="400" height="200" as="geometry"/></mxCell><mxCell id="0468SQZIPKXFU5IZXLyd-11" value="RejectCancelation" style="rounded=1;whiteSpace=wrap;html=1;fillColor=#dae8fc;strokeColor=#6c8ebf;" parent="1" vertex="1"><mxGeometry x="-159" y="1170" width="170" height="60" as="geometry"/></mxCell><mxCell id="0468SQZIPKXFU5IZXLyd-12" value="CancelationRejected" style="rounded=1;whiteSpace=wrap;html=1;fillColor=#ffe6cc;strokeColor=#d79b00;" parent="1" vertex="1"><mxGeometry x="30" y="1170" width="170" height="60" as="geometry"/></mxCell><mxCell id="0468SQZIPKXFU5IZXLyd-13" value="&lt;h1&gt;Employee&lt;/h1&gt;&lt;div&gt;&lt;br&gt;&lt;/div&gt;&lt;div&gt;&lt;br&gt;&lt;/div&gt;&lt;div&gt;&lt;br&gt;&lt;/div&gt;&lt;div&gt;&lt;br&gt;&lt;/div&gt;&lt;div&gt;&lt;br&gt;&lt;/div&gt;&lt;div&gt;&lt;br&gt;&lt;/div&gt;" style="rounded=1;whiteSpace=wrap;html=1;fillColor=#fff2cc;strokeColor=#d6b656;" parent="1" vertex="1"><mxGeometry x="390" y="80" width="400" height="200" as="geometry"/></mxCell><mxCell id="0468SQZIPKXFU5IZXLyd-14" value="ReduceVacationDays" style="rounded=1;whiteSpace=wrap;html=1;fillColor=#dae8fc;strokeColor=#6c8ebf;" parent="1" vertex="1"><mxGeometry x="411" y="180" width="170" height="60" as="geometry"/></mxCell><mxCell id="0468SQZIPKXFU5IZXLyd-15" value="VacationDaysReduced" style="rounded=1;whiteSpace=wrap;html=1;fillColor=#ffe6cc;strokeColor=#d79b00;" parent="1" vertex="1"><mxGeometry x="600" y="180" width="170" height="60" as="geometry"/></mxCell></root></mxGraphModel></diagram><diagram id="n8QIL93eikdXzBzAy_zc" name="Appointment"><mxGraphModel dx="-91" dy="2654" grid="1" gridSize="10" guides="1" tooltips="1" connect="1" arrows="1" fold="1" page="1" pageScale="1" pageWidth="827" pageHeight="1169" math="0" shadow="0"><root><mxCell id="0"/><mxCell id="1" parent="0"/><mxCell id="2GaTa-fQPyvfHVwyPHe5-4" value="" style="group;fontStyle=1" parent="1" vertex="1" connectable="0"><mxGeometry x="2510" y="220" width="409" height="200" as="geometry"/></mxCell><mxCell id="2GaTa-fQPyvfHVwyPHe5-1" value="&lt;h1&gt;Appointment&lt;/h1&gt;&lt;div&gt;&lt;br&gt;&lt;/div&gt;&lt;div&gt;&lt;br&gt;&lt;/div&gt;&lt;div&gt;&lt;br&gt;&lt;/div&gt;&lt;div&gt;&lt;br&gt;&lt;/div&gt;&lt;div&gt;&lt;br&gt;&lt;/div&gt;&lt;div&gt;&lt;br&gt;&lt;/div&gt;" style="rounded=1;whiteSpace=wrap;html=1;fillColor=#fff2cc;strokeColor=#d6b656;labelBackgroundColor=none;" parent="2GaTa-fQPyvfHVwyPHe5-4" vertex="1"><mxGeometry width="409" height="200" as="geometry"/></mxCell><mxCell id="2GaTa-fQPyvfHVwyPHe5-2" value="CreateAppointment" style="rounded=1;whiteSpace=wrap;html=1;fillColor=#dae8fc;strokeColor=#6c8ebf;labelBackgroundColor=none;" parent="2GaTa-fQPyvfHVwyPHe5-4" vertex="1"><mxGeometry x="20" y="106" width="170" height="60" as="geometry"/></mxCell><mxCell id="2GaTa-fQPyvfHVwyPHe5-3" value="AppointmentCreated" style="rounded=1;whiteSpace=wrap;html=1;fillColor=#ffe6cc;strokeColor=#d79b00;labelBackgroundColor=none;" parent="2GaTa-fQPyvfHVwyPHe5-4" vertex="1"><mxGeometry x="230" y="106" width="170" height="60" as="geometry"/></mxCell><mxCell id="2GaTa-fQPyvfHVwyPHe5-5" value="" style="group" parent="1" vertex="1" connectable="0"><mxGeometry x="3080" y="230" width="409" height="200" as="geometry"/></mxCell><mxCell id="2GaTa-fQPyvfHVwyPHe5-6" value="&lt;h1&gt;Participant&lt;/h1&gt;&lt;div&gt;&lt;br&gt;&lt;/div&gt;&lt;div&gt;&lt;br&gt;&lt;/div&gt;&lt;div&gt;&lt;br&gt;&lt;/div&gt;&lt;div&gt;&lt;br&gt;&lt;/div&gt;&lt;div&gt;&lt;br&gt;&lt;/div&gt;&lt;div&gt;&lt;br&gt;&lt;/div&gt;" style="rounded=1;whiteSpace=wrap;html=1;fillColor=#fff2cc;strokeColor=#d6b656;labelBackgroundColor=none;" parent="2GaTa-fQPyvfHVwyPHe5-5" vertex="1"><mxGeometry width="409" height="200" as="geometry"/></mxCell><mxCell id="2GaTa-fQPyvfHVwyPHe5-7" value="InviteParticipant" style="rounded=1;whiteSpace=wrap;html=1;fillColor=#dae8fc;strokeColor=#6c8ebf;labelBackgroundColor=none;" parent="2GaTa-fQPyvfHVwyPHe5-5" vertex="1"><mxGeometry x="20" y="106" width="170" height="60" as="geometry"/></mxCell><mxCell id="2GaTa-fQPyvfHVwyPHe5-8" value="ParticipantInvited" style="rounded=1;whiteSpace=wrap;html=1;fillColor=#ffe6cc;strokeColor=#d79b00;labelBackgroundColor=none;" parent="2GaTa-fQPyvfHVwyPHe5-5" vertex="1"><mxGeometry x="230" y="106" width="170" height="60" as="geometry"/></mxCell><mxCell id="2GaTa-fQPyvfHVwyPHe5-18" value="" style="group" parent="1" vertex="1" connectable="0"><mxGeometry x="3663" y="20" width="409" height="200" as="geometry"/></mxCell><mxCell id="2GaTa-fQPyvfHVwyPHe5-19" value="&lt;h1&gt;Commitment&lt;/h1&gt;&lt;div&gt;&lt;br&gt;&lt;/div&gt;&lt;div&gt;&lt;br&gt;&lt;/div&gt;&lt;div&gt;&lt;br&gt;&lt;/div&gt;&lt;div&gt;&lt;br&gt;&lt;/div&gt;&lt;div&gt;&lt;br&gt;&lt;/div&gt;&lt;div&gt;&lt;br&gt;&lt;/div&gt;" style="rounded=1;whiteSpace=wrap;html=1;fillColor=#fff2cc;strokeColor=#d6b656;labelBackgroundColor=none;" parent="2GaTa-fQPyvfHVwyPHe5-18" vertex="1"><mxGeometry width="409" height="200" as="geometry"/></mxCell><mxCell id="2GaTa-fQPyvfHVwyPHe5-20" value="ConfirmAppointment" style="rounded=1;whiteSpace=wrap;html=1;fillColor=#dae8fc;strokeColor=#6c8ebf;labelBackgroundColor=none;" parent="2GaTa-fQPyvfHVwyPHe5-18" vertex="1"><mxGeometry x="20" y="106" width="170" height="60" as="geometry"/></mxCell><mxCell id="2GaTa-fQPyvfHVwyPHe5-21" value="AppointmentConfirmed" style="rounded=1;whiteSpace=wrap;html=1;fillColor=#ffe6cc;strokeColor=#d79b00;labelBackgroundColor=none;" parent="2GaTa-fQPyvfHVwyPHe5-18" vertex="1"><mxGeometry x="230" y="106" width="170" height="60" as="geometry"/></mxCell><mxCell id="2GaTa-fQPyvfHVwyPHe5-22" value="" style="group" parent="1" vertex="1" connectable="0"><mxGeometry x="3660" y="270" width="409" height="200" as="geometry"/></mxCell><mxCell id="2GaTa-fQPyvfHVwyPHe5-23" value="&lt;h1&gt;Commitment&lt;/h1&gt;&lt;div&gt;&lt;br&gt;&lt;/div&gt;&lt;div&gt;&lt;br&gt;&lt;/div&gt;&lt;div&gt;&lt;br&gt;&lt;/div&gt;&lt;div&gt;&lt;br&gt;&lt;/div&gt;&lt;div&gt;&lt;br&gt;&lt;/div&gt;&lt;div&gt;&lt;br&gt;&lt;/div&gt;" style="rounded=1;whiteSpace=wrap;html=1;fillColor=#fff2cc;strokeColor=#d6b656;labelBackgroundColor=none;" parent="2GaTa-fQPyvfHVwyPHe5-22" vertex="1"><mxGeometry width="409" height="200" as="geometry"/></mxCell><mxCell id="2GaTa-fQPyvfHVwyPHe5-24" value="CancelAppointment" style="rounded=1;whiteSpace=wrap;html=1;fillColor=#dae8fc;strokeColor=#6c8ebf;labelBackgroundColor=none;" parent="2GaTa-fQPyvfHVwyPHe5-22" vertex="1"><mxGeometry x="20" y="106" width="170" height="60" as="geometry"/></mxCell><mxCell id="2GaTa-fQPyvfHVwyPHe5-25" value="AppointmentCanceled" style="rounded=1;whiteSpace=wrap;html=1;fillColor=#ffe6cc;strokeColor=#d79b00;labelBackgroundColor=none;" parent="2GaTa-fQPyvfHVwyPHe5-22" vertex="1"><mxGeometry x="230" y="106" width="170" height="60" as="geometry"/></mxCell><mxCell id="2GaTa-fQPyvfHVwyPHe5-38" value="" style="group" parent="1" vertex="1" connectable="0"><mxGeometry x="4260" y="20" width="409" height="200" as="geometry"/></mxCell><mxCell id="2GaTa-fQPyvfHVwyPHe5-39" value="&lt;h1&gt;Calendar&lt;/h1&gt;&lt;div&gt;&lt;br&gt;&lt;/div&gt;&lt;div&gt;&lt;br&gt;&lt;/div&gt;&lt;div&gt;&lt;br&gt;&lt;/div&gt;&lt;div&gt;&lt;br&gt;&lt;/div&gt;&lt;div&gt;&lt;br&gt;&lt;/div&gt;&lt;div&gt;&lt;br&gt;&lt;/div&gt;" style="rounded=1;whiteSpace=wrap;html=1;fillColor=#fff2cc;strokeColor=#d6b656;labelBackgroundColor=none;" parent="2GaTa-fQPyvfHVwyPHe5-38" vertex="1"><mxGeometry width="409" height="200" as="geometry"/></mxCell><mxCell id="2GaTa-fQPyvfHVwyPHe5-40" value="CreateCalenderEntry" style="rounded=1;whiteSpace=wrap;html=1;fillColor=#dae8fc;strokeColor=#6c8ebf;labelBackgroundColor=none;" parent="2GaTa-fQPyvfHVwyPHe5-38" vertex="1"><mxGeometry x="20" y="106" width="170" height="60" as="geometry"/></mxCell><mxCell id="2GaTa-fQPyvfHVwyPHe5-41" value="CalendarEntryCreated" style="rounded=1;whiteSpace=wrap;html=1;fillColor=#ffe6cc;strokeColor=#d79b00;labelBackgroundColor=none;" parent="2GaTa-fQPyvfHVwyPHe5-38" vertex="1"><mxGeometry x="230" y="106" width="170" height="60" as="geometry"/></mxCell><mxCell id="2GaTa-fQPyvfHVwyPHe5-42" value="Validierungen erfolgen gegen die Query API während der Runtime" style="rounded=0;whiteSpace=wrap;html=1;fontSize=29;" parent="1" vertex="1"><mxGeometry x="2740" y="510" width="291" height="240" as="geometry"/></mxCell><mxCell id="2GaTa-fQPyvfHVwyPHe5-48" value="" style="group" parent="1" vertex="1" connectable="0"><mxGeometry x="5660" y="10" width="409" height="200" as="geometry"/></mxCell><mxCell id="2GaTa-fQPyvfHVwyPHe5-49" value="&lt;h1&gt;Reminder&lt;/h1&gt;&lt;div&gt;&lt;br&gt;&lt;/div&gt;&lt;div&gt;&lt;br&gt;&lt;/div&gt;&lt;div&gt;&lt;br&gt;&lt;/div&gt;&lt;div&gt;&lt;br&gt;&lt;/div&gt;&lt;div&gt;&lt;br&gt;&lt;/div&gt;&lt;div&gt;&lt;br&gt;&lt;/div&gt;" style="rounded=1;whiteSpace=wrap;html=1;fillColor=#fff2cc;strokeColor=#d6b656;labelBackgroundColor=none;" parent="2GaTa-fQPyvfHVwyPHe5-48" vertex="1"><mxGeometry width="409" height="200" as="geometry"/></mxCell><mxCell id="2GaTa-fQPyvfHVwyPHe5-50" value="RemindParticipand" style="rounded=1;whiteSpace=wrap;html=1;fillColor=#dae8fc;strokeColor=#6c8ebf;labelBackgroundColor=none;" parent="2GaTa-fQPyvfHVwyPHe5-48" vertex="1"><mxGeometry x="20" y="106" width="170" height="60" as="geometry"/></mxCell><mxCell id="2GaTa-fQPyvfHVwyPHe5-51" value="ParticipantReminded" style="rounded=1;whiteSpace=wrap;html=1;fillColor=#ffe6cc;strokeColor=#d79b00;labelBackgroundColor=none;" parent="2GaTa-fQPyvfHVwyPHe5-48" vertex="1"><mxGeometry x="230" y="106" width="170" height="60" as="geometry"/></mxCell><mxCell id="2GaTa-fQPyvfHVwyPHe5-52" value="" style="group" parent="1" vertex="1" connectable="0"><mxGeometry x="6160" y="10" width="409" height="200" as="geometry"/></mxCell><mxCell id="2GaTa-fQPyvfHVwyPHe5-53" value="&lt;h1&gt;Appointment&lt;/h1&gt;&lt;div&gt;&lt;br&gt;&lt;/div&gt;&lt;div&gt;&lt;br&gt;&lt;/div&gt;&lt;div&gt;&lt;br&gt;&lt;/div&gt;&lt;div&gt;&lt;br&gt;&lt;/div&gt;&lt;div&gt;&lt;br&gt;&lt;/div&gt;&lt;div&gt;&lt;br&gt;&lt;/div&gt;" style="rounded=1;whiteSpace=wrap;html=1;fillColor=#fff2cc;strokeColor=#d6b656;labelBackgroundColor=none;" parent="2GaTa-fQPyvfHVwyPHe5-52" vertex="1"><mxGeometry width="409" height="200" as="geometry"/></mxCell><mxCell id="2GaTa-fQPyvfHVwyPHe5-54" value="LaunchAppointment" style="rounded=1;whiteSpace=wrap;html=1;fillColor=#dae8fc;strokeColor=#6c8ebf;labelBackgroundColor=none;" parent="2GaTa-fQPyvfHVwyPHe5-52" vertex="1"><mxGeometry x="20" y="106" width="170" height="60" as="geometry"/></mxCell><mxCell id="2GaTa-fQPyvfHVwyPHe5-55" value="AppointmentLaunched" style="rounded=1;whiteSpace=wrap;html=1;fillColor=#ffe6cc;strokeColor=#d79b00;labelBackgroundColor=none;" parent="2GaTa-fQPyvfHVwyPHe5-52" vertex="1"><mxGeometry x="230" y="106" width="170" height="60" as="geometry"/></mxCell><mxCell id="2GaTa-fQPyvfHVwyPHe5-56" value="" style="group" parent="1" vertex="1" connectable="0"><mxGeometry x="4760" y="490" width="409" height="200" as="geometry"/></mxCell><mxCell id="2GaTa-fQPyvfHVwyPHe5-57" value="&lt;h1&gt;Appointment&lt;/h1&gt;&lt;div&gt;&lt;br&gt;&lt;/div&gt;&lt;div&gt;&lt;br&gt;&lt;/div&gt;&lt;div&gt;&lt;br&gt;&lt;/div&gt;&lt;div&gt;&lt;br&gt;&lt;/div&gt;&lt;div&gt;&lt;br&gt;&lt;/div&gt;&lt;div&gt;&lt;br&gt;&lt;/div&gt;" style="rounded=1;whiteSpace=wrap;html=1;fillColor=#fff2cc;strokeColor=#d6b656;labelBackgroundColor=none;" parent="2GaTa-fQPyvfHVwyPHe5-56" vertex="1"><mxGeometry width="409" height="200" as="geometry"/></mxCell><mxCell id="2GaTa-fQPyvfHVwyPHe5-58" value="CancelAppointment" style="rounded=1;whiteSpace=wrap;html=1;fillColor=#dae8fc;strokeColor=#6c8ebf;labelBackgroundColor=none;" parent="2GaTa-fQPyvfHVwyPHe5-56" vertex="1"><mxGeometry x="20" y="106" width="170" height="60" as="geometry"/></mxCell><mxCell id="2GaTa-fQPyvfHVwyPHe5-59" value="AppointmentCanceled" style="rounded=1;whiteSpace=wrap;html=1;fillColor=#ffe6cc;strokeColor=#d79b00;labelBackgroundColor=none;" parent="2GaTa-fQPyvfHVwyPHe5-56" vertex="1"><mxGeometry x="230" y="106" width="170" height="60" as="geometry"/></mxCell><mxCell id="pMfA6QMCeQ0uEWNfOT9r-1" value="" style="group" parent="1" vertex="1" connectable="0"><mxGeometry x="6630" y="10" width="409" height="200" as="geometry"/></mxCell><mxCell id="pMfA6QMCeQ0uEWNfOT9r-2" value="&lt;h1&gt;Appointment&lt;/h1&gt;&lt;div&gt;&lt;br&gt;&lt;/div&gt;&lt;div&gt;&lt;br&gt;&lt;/div&gt;&lt;div&gt;&lt;br&gt;&lt;/div&gt;&lt;div&gt;&lt;br&gt;&lt;/div&gt;&lt;div&gt;&lt;br&gt;&lt;/div&gt;&lt;div&gt;&lt;br&gt;&lt;/div&gt;" style="rounded=1;whiteSpace=wrap;html=1;fillColor=#fff2cc;strokeColor=#d6b656;labelBackgroundColor=none;" parent="pMfA6QMCeQ0uEWNfOT9r-1" vertex="1"><mxGeometry width="409" height="200" as="geometry"/></mxCell><mxCell id="pMfA6QMCeQ0uEWNfOT9r-3" value="EndAppointmentExecution" style="rounded=1;whiteSpace=wrap;html=1;fillColor=#dae8fc;strokeColor=#6c8ebf;labelBackgroundColor=none;" parent="pMfA6QMCeQ0uEWNfOT9r-1" vertex="1"><mxGeometry x="20" y="106" width="170" height="60" as="geometry"/></mxCell><mxCell id="pMfA6QMCeQ0uEWNfOT9r-4" value="AppiontmentExecuted" style="rounded=1;whiteSpace=wrap;html=1;fillColor=#ffe6cc;strokeColor=#d79b00;labelBackgroundColor=none;" parent="pMfA6QMCeQ0uEWNfOT9r-1" vertex="1"><mxGeometry x="230" y="106" width="170" height="60" as="geometry"/></mxCell><mxCell id="pMfA6QMCeQ0uEWNfOT9r-5" value="" style="group" parent="1" vertex="1" connectable="0"><mxGeometry x="4760" y="260" width="409" height="200" as="geometry"/></mxCell><mxCell id="pMfA6QMCeQ0uEWNfOT9r-6" value="&lt;h1&gt;Appointment&lt;/h1&gt;&lt;div&gt;&lt;br&gt;&lt;/div&gt;&lt;div&gt;&lt;br&gt;&lt;/div&gt;&lt;div&gt;&lt;br&gt;&lt;/div&gt;&lt;div&gt;&lt;br&gt;&lt;/div&gt;&lt;div&gt;&lt;br&gt;&lt;/div&gt;&lt;div&gt;&lt;br&gt;&lt;/div&gt;" style="rounded=1;whiteSpace=wrap;html=1;fillColor=#fff2cc;strokeColor=#d6b656;labelBackgroundColor=none;" parent="pMfA6QMCeQ0uEWNfOT9r-5" vertex="1"><mxGeometry width="409" height="200" as="geometry"/></mxCell><mxCell id="pMfA6QMCeQ0uEWNfOT9r-7" value="ChangeAppointmentPlace" style="rounded=1;whiteSpace=wrap;html=1;fillColor=#dae8fc;strokeColor=#6c8ebf;labelBackgroundColor=none;" parent="pMfA6QMCeQ0uEWNfOT9r-5" vertex="1"><mxGeometry x="20" y="106" width="170" height="60" as="geometry"/></mxCell><mxCell id="pMfA6QMCeQ0uEWNfOT9r-8" value="AppointmentPlaceChanged" style="rounded=1;whiteSpace=wrap;html=1;fillColor=#ffe6cc;strokeColor=#d79b00;labelBackgroundColor=none;" parent="pMfA6QMCeQ0uEWNfOT9r-5" vertex="1"><mxGeometry x="230" y="106" width="170" height="60" as="geometry"/></mxCell><mxCell id="WBzDeY2yP9rU-m7deHlH-1" value="Es gibt 2 verschieden Arten von Terminen:&lt;br&gt;Anwesenheit aller Teilnehmer erforderlich&lt;br&gt;oder es ist egal ob alle anwesend sind" style="rounded=0;whiteSpace=wrap;html=1;fontSize=29;" parent="1" vertex="1"><mxGeometry x="2740" y="-30" width="291" height="240" as="geometry"/></mxCell></root></mxGraphModel></diagram><diagram id="RDQwGEqCX47gj3b3cU9N" name="Document"><mxGraphModel dx="1329" dy="1251" grid="1" gridSize="24" guides="1" tooltips="1" connect="1" arrows="1" fold="1" page="1" pageScale="1" pageWidth="827" pageHeight="1169" math="0" shadow="0"><root><mxCell id="0"/><mxCell id="1" parent="0"/></root></mxGraphModel></diagram></mxfile>